<svg width="167" height="54" viewBox="0 0 167 54" fill="none" xmlns="http://www.w3.org/2000/svg">
<path d="M74.1632 52.769C72.574 52.769 71.4814 51.6121 71.4814 49.9264C71.4814 48.2407 72.574 47.0839 74.1632 47.0839C75.7524 47.0839 76.845 48.2407 76.845 49.9264C76.8781 51.6121 75.7524 52.769 74.1632 52.769ZM74.1963 48.2738C73.3024 48.2738 72.7727 48.9018 72.7727 49.9595C72.7727 51.0172 73.3024 51.6452 74.1963 51.6452C75.0903 51.6452 75.62 51.0172 75.62 49.9595C75.5869 48.9018 75.0571 48.2738 74.1963 48.2738Z" fill="white"/>
<path d="M77.5734 52.6699V48.9679H78.6329L78.6991 49.3646C78.9308 49.034 79.3613 48.8688 79.8248 48.8688C80.7187 48.8688 81.2154 49.4307 81.2154 50.3892V52.6699H80.0897V50.6536C80.0897 50.1909 79.8248 49.8934 79.4275 49.8934C78.964 49.8934 78.6991 50.1909 78.6991 50.6536V52.6699H77.5734Z" fill="white"/>
<path d="M81.8444 50.8189C81.8444 49.662 82.639 48.8688 83.7316 48.8688C84.8904 48.8688 85.6188 49.629 85.6188 50.8519V51.1494H82.937C83.0032 51.6452 83.2681 51.8766 83.7978 51.8766C84.2282 51.8766 84.5262 51.7113 84.6256 51.4469H85.685C85.5526 52.2732 84.8242 52.8021 83.7978 52.8021C82.6721 52.769 81.8444 51.9757 81.8444 50.8189ZM82.9701 50.4223H84.5262C84.5262 50.0256 84.2283 49.7943 83.7647 49.7943C83.3012 49.7943 83.0694 49.9926 82.9701 50.4223Z" fill="white"/>
<path d="M87.9364 52.6698L89.8899 47.183H91.0487L93.0021 52.6698H91.7108L91.3135 51.5129H89.5257L89.1283 52.6698H87.9364ZM89.923 50.5213H91.0155L90.6182 49.3645C90.552 49.1662 90.4858 48.9678 90.4858 48.8356C90.4527 48.9678 90.4196 49.1662 90.3534 49.3645L89.923 50.5213Z" fill="white"/>
<path d="M94.8562 52.6698H93.6311V47.183H94.823V52.6698H94.8562Z" fill="white"/>
<path d="M96.0481 53.6284V53.2317C96.4122 53.1656 96.6771 52.9673 96.7102 52.6698C96.644 52.7029 96.5778 52.7029 96.5116 52.7029C96.1474 52.7029 95.8825 52.4385 95.8825 52.1079C95.8825 51.7113 96.1474 51.4138 96.5116 51.4138C96.942 51.4138 97.24 51.7774 97.24 52.2732C97.24 53.0004 96.7433 53.5623 96.0481 53.6284Z" fill="white"/>
<path d="M102.604 52.769C101.014 52.769 99.9218 51.6121 99.9218 49.9264C99.9218 48.2407 101.014 47.0839 102.604 47.0839C104.193 47.0839 105.285 48.2407 105.285 49.9264C105.319 51.6121 104.193 52.769 102.604 52.769ZM102.637 48.2738C101.743 48.2738 101.213 48.9018 101.213 49.9595C101.213 51.0172 101.743 51.6452 102.637 51.6452C103.531 51.6452 104.06 51.0172 104.06 49.9595C104.027 48.9018 103.498 48.2738 102.637 48.2738Z" fill="white"/>
<path d="M106.014 52.6699V48.9679H107.073L107.139 49.3646C107.371 49.034 107.802 48.8688 108.265 48.8688C109.159 48.8688 109.656 49.4307 109.656 50.3892V52.6699H108.53V50.6536C108.53 50.1909 108.265 49.8934 107.868 49.8934C107.404 49.8934 107.139 50.1909 107.139 50.6536V52.6699H106.014Z" fill="white"/>
<path d="M110.285 50.8189C110.285 49.662 111.079 48.8688 112.172 48.8688C113.331 48.8688 114.059 49.629 114.059 50.8519V51.1494H111.377C111.444 51.6452 111.708 51.8766 112.238 51.8766C112.669 51.8766 112.967 51.7113 113.066 51.4469H114.125C113.993 52.2732 113.265 52.8021 112.238 52.8021C111.113 52.769 110.285 51.9757 110.285 50.8189ZM111.41 50.4223H112.967C112.967 50.0256 112.669 49.7943 112.205 49.7943C111.742 49.7943 111.51 49.9926 111.41 50.4223Z" fill="white"/>
<path d="M116.873 52.6698V47.183H118.032L119.655 51.2815L121.31 47.183H122.502V52.6698H121.343V51.5129C121.343 50.323 121.343 50.0586 121.409 49.6619L120.251 52.6698H119.125L117.966 49.6619C118.032 50.0586 118.032 50.5213 118.032 51.1163V52.6367H116.873V52.6698Z" fill="white"/>
<path d="M123.396 47.7449C123.396 47.3814 123.694 47.1169 124.058 47.1169C124.422 47.1169 124.687 47.4144 124.687 47.7449C124.687 48.1085 124.389 48.406 124.058 48.406C123.694 48.406 123.396 48.1085 123.396 47.7449ZM123.495 48.9679H124.621V52.6698H123.495V48.9679Z" fill="white"/>
<path d="M126.309 51.513C126.309 51.7774 126.508 51.9427 126.872 51.9427C127.236 51.9427 127.402 51.8105 127.402 51.6122C127.402 51.513 127.336 51.3808 127.071 51.3147L126.376 51.1825C125.68 51.0503 125.349 50.7528 125.349 50.0917C125.349 49.3315 126.011 48.8688 126.905 48.8688C127.766 48.8688 128.362 49.3646 128.362 50.1248H127.27C127.27 49.8604 127.104 49.6951 126.839 49.6951C126.574 49.6951 126.409 49.8273 126.409 50.0256C126.409 50.1909 126.541 50.29 126.806 50.3562L127.501 50.4884C128.097 50.6206 128.428 50.9181 128.428 51.48C128.428 52.2732 127.766 52.769 126.773 52.769C125.78 52.769 125.184 52.2402 125.184 51.513H126.309Z" fill="white"/>
<path d="M129.852 51.513C129.852 51.7774 130.051 51.9427 130.415 51.9427C130.779 51.9427 130.945 51.8105 130.945 51.6122C130.945 51.513 130.878 51.3808 130.614 51.3147L129.918 51.1825C129.223 51.0503 128.892 50.7528 128.892 50.0917C128.892 49.3315 129.554 48.8688 130.448 48.8688C131.309 48.8688 131.905 49.3646 131.905 50.1248H130.812C130.812 49.8604 130.647 49.6951 130.382 49.6951C130.117 49.6951 129.951 49.8273 129.951 50.0256C129.951 50.1909 130.084 50.29 130.349 50.3562L131.044 50.4884C131.64 50.6206 131.971 50.9181 131.971 51.48C131.971 52.2732 131.309 52.769 130.316 52.769C129.322 52.769 128.726 52.2402 128.726 51.513H129.852Z" fill="white"/>
<path d="M132.501 47.7449C132.501 47.3814 132.799 47.1169 133.163 47.1169C133.527 47.1169 133.792 47.4144 133.792 47.7449C133.792 48.1085 133.494 48.406 133.163 48.406C132.799 48.406 132.501 48.1085 132.501 47.7449ZM132.6 48.9679H133.726V52.6698H132.6V48.9679Z" fill="white"/>
<path d="M136.441 48.8688C137.633 48.8688 138.493 49.662 138.493 50.8189C138.493 51.9757 137.633 52.769 136.441 52.769C135.249 52.769 134.388 51.9757 134.388 50.8189C134.388 49.662 135.249 48.8688 136.441 48.8688ZM136.441 51.7444C136.97 51.7444 137.335 51.3808 137.335 50.8189C137.335 50.257 136.97 49.8934 136.441 49.8934C135.911 49.8934 135.547 50.257 135.547 50.8189C135.547 51.3808 135.911 51.7444 136.441 51.7444Z" fill="white"/>
<path d="M139.156 52.6699V48.9679H140.215L140.281 49.3646C140.513 49.034 140.943 48.8688 141.407 48.8688C142.301 48.8688 142.798 49.4307 142.798 50.3892V52.6699H141.672V50.6536C141.672 50.1909 141.407 49.8934 141.01 49.8934C140.546 49.8934 140.281 50.1909 140.281 50.6536V52.6699H139.156Z" fill="white"/>
<path d="M0.959869 29.2022C0.959869 20.5754 6.3897 14.8242 14.5344 14.8242C21.1231 14.8242 26.0232 18.6584 26.9833 24.6409H21.8515C20.8913 21.4017 18.1102 19.5177 14.4351 19.5177C9.30326 19.5177 6.05861 23.2527 6.05861 29.1692C6.05861 35.0526 9.33637 38.8537 14.4351 38.8537C18.2095 38.8537 21.09 36.8705 22.017 33.7966H27.0826C26.0232 39.6469 20.9244 43.5141 14.3358 43.5141C6.19104 43.5472 0.959869 37.9282 0.959869 29.2022Z" fill="white"/>
<path d="M30.5591 43.0844V14.7911H35.2274V26.7232C36.4193 24.9053 38.6045 23.7154 41.3194 23.7154C45.9546 23.7154 48.4046 26.6571 48.4046 31.5159V43.0844H43.7694V32.6397C43.7694 29.4997 42.2133 27.9792 39.8626 27.9792C36.9159 27.9792 35.2274 30.0285 35.2274 32.838V43.0844H30.5591Z" fill="white"/>
<path d="M61.9461 23.7815C67.7732 23.7815 72.0111 27.8139 72.0111 33.6643C72.0111 39.5147 67.7732 43.5471 61.9461 43.5471C56.119 43.5471 51.881 39.5147 51.881 33.6643C51.881 27.8139 56.119 23.7815 61.9461 23.7815ZM61.9461 39.3825C65.1576 39.3825 67.3428 37.0688 67.3428 33.6313C67.3428 30.1938 65.1245 27.8801 61.9461 27.8801C58.7345 27.8801 56.5494 30.1938 56.5494 33.6313C56.5494 37.0688 58.7345 39.3825 61.9461 39.3825Z" fill="white"/>
<path d="M75.6862 43.0844V24.3103H79.9572L80.3214 26.5249C81.2816 24.9714 83.1688 23.7484 85.8837 23.7484C88.7311 23.7484 90.7176 25.1697 91.7108 27.3181C92.671 25.1366 94.8562 23.7484 97.7366 23.7484C102.306 23.7484 104.822 26.4918 104.822 30.8217V43.0844H100.22V32.0116C100.22 29.3013 98.763 27.9131 96.5778 27.9131C94.3264 27.9131 92.6048 29.3674 92.6048 32.4413V43.0844H87.9695V31.9786C87.9695 29.3674 86.5459 27.9461 84.3607 27.9461C82.1424 27.9461 80.3545 29.4005 80.3545 32.4413V43.0844H75.6862Z" fill="white"/>
<path d="M112.106 37.3993C112.139 39.0188 113.364 40.0435 115.483 40.0435C117.668 40.0435 118.827 39.1841 118.827 37.7959C118.827 36.8374 118.33 36.1763 116.642 35.7797L113.265 34.9864C109.888 34.2262 108.232 32.6396 108.232 29.6318C108.232 25.9299 111.344 23.7484 115.682 23.7484C119.919 23.7484 122.767 26.1943 122.8 29.8301H118.396C118.363 28.2436 117.304 27.219 115.516 27.219C113.695 27.219 112.636 28.0453 112.636 29.4666C112.636 30.5243 113.463 31.2184 115.086 31.5819L118.463 32.3752C121.608 33.1024 123.23 34.5567 123.23 37.4323C123.23 41.2334 119.986 43.5801 115.35 43.5801C110.682 43.5801 107.702 41.0681 107.702 37.3993H112.106Z" fill="white"/>
<path d="M126.839 43.0844V14.7911H131.441V32.1439L138.758 24.2773H144.585L137.434 31.7473L144.453 43.0844H139.123L134.222 35.1848L131.474 38.0273V43.0844H126.839Z" fill="white"/>
<path d="M147.135 48.2737H150.015C151.902 48.2737 153.094 47.844 153.922 45.5634L154.485 44.109L146.638 23.8146H151.737L156.736 37.9943L162.034 23.8146H167L157.432 47.6127C155.975 51.2485 153.922 52.7358 150.711 52.7358C149.353 52.7358 148.194 52.5706 147.102 52.3062V48.2737H147.135Z" fill="white"/>
<path d="M19.7325 6.66011C18.8385 9.99845 15.7925 12.0808 15.7925 12.0808C15.7925 12.0808 14.1371 8.77549 15.031 5.43715C15.8919 2.09881 18.9379 0.0164795 18.9379 0.0164795C18.9379 0.0164795 20.5933 3.32177 19.7325 6.66011Z" fill="#32B582"/>
</svg>
